<svg width="64" height="64" viewBox="0 0 64 64" fill="none" xmlns="http://www.w3.org/2000/svg">
<path d="M55.0694 55.2857V45.3897V38.1245C55.0694 37.2036 55.0694 36.7432 54.8902 36.3914C54.7325 36.082 54.481 35.8305 54.1716 35.6729C53.8199 35.4937 53.3594 35.4937 52.4386 35.4937H45.1734H37.9081C36.9873 35.4937 36.5268 35.4937 36.1751 35.6729C35.8657 35.8305 35.6142 36.082 35.4566 36.3914C35.2773 36.7432 35.2773 37.2036 35.2773 38.1245V52.6549C35.2773 53.5757 35.2773 54.0362 35.4566 54.3879C35.6142 54.6973 35.8657 54.9488 36.1751 55.1065C36.5268 55.2857 36.9873 55.2857 37.9082 55.2857H45.1734" stroke="#EF3C60" stroke-width="3" stroke-linecap="round" stroke-linejoin="round"/>
<circle cx="45.1753" cy="55.2856" r="2.46628" fill="#EF3C60" stroke="#EF3C60" stroke-width="3.44804" stroke-linecap="round" stroke-linejoin="round"/>
<path d="M9.07712 19.1434L9.07712 11.8782C9.07712 10.9574 9.07712 10.4969 9.25633 10.1452C9.41397 9.83583 9.66551 9.58429 9.9749 9.42665C10.3266 9.24744 10.7871 9.24744 11.7079 9.24744L26.2383 9.24744C27.1592 9.24744 27.6196 9.24744 27.9714 9.42665C28.2807 9.58429 28.5323 9.83583 28.6899 10.1452C28.8691 10.4969 28.8691 10.9574 28.8691 11.8782L28.8691 19.1434L28.8691 26.4087C28.8691 27.3295 28.8691 27.79 28.6899 28.1417C28.5323 28.4511 28.2807 28.7026 27.9714 28.8602C27.6196 29.0395 27.1592 29.0395 26.2383 29.0395L18.9731 29.0395L11.5511 29.0395C10.7778 29.0395 10.3912 29.0395 10.0866 28.912C9.68816 28.7452 9.37133 28.4284 9.20458 28.03C9.07712 27.7254 9.07712 27.3387 9.07712 26.5655" stroke="#EF3C60" stroke-width="3" stroke-linecap="round" stroke-linejoin="round"/>
<circle cx="9.07474" cy="29.0395" r="2.46628" transform="rotate(90 9.07474 29.0395)" fill="#EF3C60" stroke="#EF3C60" stroke-width="3.44804" stroke-linecap="round" stroke-linejoin="round"/>
<path d="M35.2773 9.33619C35.2773 9.28717 35.3171 9.24744 35.3661 9.24744H52.4386C53.3594 9.24744 53.8199 9.24744 54.1716 9.42665C54.481 9.58429 54.7325 9.83583 54.8902 10.1452C55.0694 10.4969 55.0694 10.9574 55.0694 11.8782V28.9507C55.0694 28.9997 55.0296 29.0395 54.9806 29.0395C44.0988 29.0395 35.2773 20.218 35.2773 9.33619Z" stroke="#EF3C60" stroke-width="3" stroke-linecap="round" stroke-linejoin="round"/>
<path d="M9.05078 37.0241C9.05078 36.975 9.09052 36.9353 9.13953 36.9353H10.5745C20.6638 36.9353 28.8428 45.1143 28.8428 55.2036C28.8428 55.249 28.806 55.2859 28.7605 55.2859H11.6816C10.7607 55.2859 10.3003 55.2859 9.94856 55.1066C9.63917 54.949 9.38763 54.6975 9.22999 54.3881C9.05078 54.0364 9.05078 53.5759 9.05078 52.6551V37.0241Z" stroke="#EF3C60" stroke-width="3" stroke-linecap="round" stroke-linejoin="round"/>
</svg>
