<svg width="64" height="64" viewBox="0 0 64 64" fill="none" xmlns="http://www.w3.org/2000/svg">
<path d="M43.7 48.4937C44.418 48.4937 45 49.0757 45 49.7937C45 52.6656 47.3281 54.9937 50.2 54.9937H51.5C52.7081 54.9937 53.3122 54.9937 53.8145 54.8938C55.8773 54.4834 57.4898 52.8709 57.9001 50.8081C58 50.3058 58 49.7018 58 48.4937V41.4737C58 37.1053 58 34.9211 57.1499 33.2525C56.402 31.7849 55.2088 30.5916 53.7411 29.8438C52.0726 28.9937 49.8884 28.9937 45.52 28.9937H18.48C14.1116 28.9937 11.9274 28.9937 10.2589 29.8438C8.79121 30.5916 7.59796 31.7849 6.85015 33.2525C6 34.9211 6 37.1053 6 41.4737V48.4937C6 49.7018 6 50.3058 6.09992 50.8081C6.51023 52.8709 8.12274 54.4834 10.1855 54.8938C10.6878 54.9937 11.2919 54.9937 12.5 54.9937H13.8C16.6719 54.9937 19 52.6656 19 49.7937C19 49.0757 19.582 48.4937 20.3 48.4937H32M13.8 36.7937H21.6M6 26.3937L11.2 28.9937L14.5037 19.0827C15.1856 17.0369 15.5265 16.0141 16.1589 15.2578C16.7174 14.59 17.4346 14.0731 18.2447 13.7545C19.1621 13.3937 20.2403 13.3937 22.3967 13.3937H27.1984M58 26.3937L52.8 28.9937L49.4963 19.0827C48.8144 17.0369 48.4735 16.0141 47.8411 15.2578C47.2826 14.59 46.5654 14.0731 45.7553 13.7545C44.8379 13.3937 43.7597 13.3937 41.6033 13.3937H36.8016M42.4 36.7937H50.2" stroke="#EF3C60" stroke-width="3" stroke-linecap="round" stroke-linejoin="round"/>
<ellipse cx="27.1893" cy="13.3937" rx="4.3875" ry="4.3875" fill="#EF3C60"/>
<ellipse cx="44.1873" cy="50.5293" rx="4.3875" ry="4.3875" fill="#EF3C60"/>
</svg>
