<svg width="64" height="64" viewBox="0 0 64 64" fill="none" xmlns="http://www.w3.org/2000/svg">
<path d="M12.6992 49.1057C12.6992 49.6929 12.6992 51.8329 12.7019 52.2961C12.7156 54.6406 12.7983 55.5477 13.2995 56.5315C13.8276 57.5679 14.6702 58.4105 15.7065 58.9385C16.8847 59.5388 18.427 59.5388 21.5116 59.5388H42.4411C45.5258 59.5388 47.0681 59.5388 48.2463 58.9385C49.2826 58.4105 50.1252 57.5679 50.6532 56.5315C51.2536 55.3534 51.2536 53.811 51.2536 50.7264V28.9547M51.2536 16.6831C51.2536 13.5985 51.2536 8.64665 50.6532 7.46847C50.1252 6.43212 49.2826 5.58954 48.2463 5.06149C47.0681 4.46118 45.5258 4.46118 42.4411 4.46118H21.5116C18.427 4.46118 16.8847 4.46118 15.7065 5.06149C14.6702 5.58954 13.8276 6.43212 13.2995 7.46847C12.6992 8.64665 12.6992 10.189 12.6992 13.2736V35.987" stroke="#EF3C60" stroke-width="3" stroke-linecap="round" stroke-linejoin="round"/>
<path d="M36.4954 48.3182C36.4954 50.8035 34.4828 52.8182 32.0002 52.8182C29.5175 52.8182 27.5049 50.8035 27.5049 48.3182C27.5049 45.833 29.5175 43.8182 32.0002 43.8182C34.4828 43.8182 36.4954 45.833 36.4954 48.3182Z" fill="#EF3C60"/>
<path d="M28.0771 12.9769H36.3383" stroke="#EF3C60" stroke-width="3" stroke-linecap="round" stroke-linejoin="round"/>
<circle cx="12.6992" cy="38.564" r="4.5" fill="#EF3C60"/>
<circle cx="51.2539" cy="28.6989" r="4.5" fill="#EF3C60"/>
</svg>
