<svg width="64" height="64" viewBox="0 0 64 64" fill="none" xmlns="http://www.w3.org/2000/svg">
<circle cx="10.709" cy="45.1304" r="4.5" fill="#EF3C60"/>
<circle cx="53.292" cy="24.1198" r="4.5" fill="#EF3C60"/>
<path d="M10.709 57.758L10.709 48.0255M53.2915 57.758V35.1838M53.2915 20.8938C53.2915 19.3278 53.2916 13.5366 53.2191 12.5363C53.145 11.5134 52.9904 10.6479 52.6335 9.8576C52.0546 8.57605 51.1309 7.53412 49.9948 6.88114C49.2942 6.47845 48.5269 6.30408 47.6201 6.22051C46.7334 6.13878 45.6332 6.13879 44.245 6.13879H19.7556C18.3673 6.13879 17.2671 6.13878 16.3804 6.22051C15.4736 6.30408 14.7063 6.47845 14.0057 6.88114C12.8696 7.53412 11.9459 8.57605 11.3671 9.8576C11.0101 10.6479 10.8555 11.5134 10.7814 12.5363C10.709 13.5366 10.709 14.7776 10.709 16.3436L10.709 33.8859" stroke="#EF3C60" stroke-width="3" stroke-linecap="round" stroke-linejoin="round"/>
<path d="M6.08008 57.8613H57.9199" stroke="#EF3C60" stroke-width="3" stroke-linecap="round" stroke-linejoin="round"/>
<path d="M22.248 41.5419H28.0458" stroke="#EF3C60" stroke-width="3" stroke-linecap="round" stroke-linejoin="round"/>
<path d="M35.9531 41.5419H41.7509" stroke="#EF3C60" stroke-width="3" stroke-linecap="round" stroke-linejoin="round"/>
<path d="M22.248 29.7948H28.0458" stroke="#EF3C60" stroke-width="3" stroke-linecap="round" stroke-linejoin="round"/>
<path d="M35.9531 29.7948H41.7509" stroke="#EF3C60" stroke-width="3" stroke-linecap="round" stroke-linejoin="round"/>
<path d="M22.248 18.048H28.0458" stroke="#EF3C60" stroke-width="3" stroke-linecap="round" stroke-linejoin="round"/>
<path d="M35.9531 18.048H41.7509" stroke="#EF3C60" stroke-width="3" stroke-linecap="round" stroke-linejoin="round"/>
</svg>
