<svg width="64" height="64" viewBox="0 0 64 64" fill="none" xmlns="http://www.w3.org/2000/svg">
<path d="M17.0063 8.97424C12.8037 8.97424 10.7024 8.97424 9.09724 9.79211C7.68527 10.5115 6.53731 11.6595 5.81788 13.0714C5 14.6766 5 16.7779 5 20.9804V32.5975C5 33.8883 5 34.5337 5.07923 35.0746C5.55974 38.355 8.13601 40.9312 11.4164 41.4117C11.7547 41.4613 11.9239 41.486 11.9678 41.4942C13.1718 41.7174 13.8455 42.497 13.8919 43.7207C13.8936 43.7652 13.8936 43.8339 13.8936 43.9713V47.8731C13.8936 49.3999 13.8936 50.1634 14.1948 50.5147C14.456 50.8194 14.8477 50.9803 15.2478 50.947C15.7089 50.9087 16.2454 50.3655 17.3184 49.2792L25.0106 41.4909M47.5225 31.4858V20.9804C47.5225 16.7779 47.5225 14.6766 46.7046 13.0714C45.9851 11.6595 44.8372 10.5115 43.4252 9.79211C41.82 8.97424 39.7187 8.97424 35.5161 8.97424H26.2612M55.0186 37.6823C54.9943 36.0277 54.8941 35.0276 54.4812 34.2172C54.0016 33.276 53.2362 32.5107 52.2949 32.031C51.2248 31.4858 49.8239 31.4858 47.0222 31.4858H33.0148C30.2131 31.4858 28.8122 31.4858 27.7421 32.031C26.8008 32.5107 26.0354 33.276 25.5558 34.2172C25.0106 35.2874 25.0106 36.6882 25.0106 39.4899V45.7789C25.0106 48.5806 25.0106 49.9814 25.5558 51.0515C26.0354 51.9928 26.8008 52.7581 27.7421 53.2377C28.8122 53.783 30.2131 53.783 33.0148 53.783H37.5095C38.4415 53.783 38.9075 53.783 39.3571 53.8658C39.7561 53.9394 40.1447 54.0612 40.5143 54.2285C40.9307 54.4172 41.3133 54.6832 42.0786 55.2152L47.5225 58.9999V53.783C49.8534 53.783 51.0189 53.783 51.9382 53.4022C53.164 52.8944 54.1379 51.9206 54.6456 50.6948C55.0264 49.7755 55.0264 48.61 55.0264 46.2791V44.768" stroke="#EF3C60" stroke-width="3" stroke-linecap="round" stroke-linejoin="round"/>
<ellipse cx="55.0261" cy="46.0518" rx="3.97432" ry="3.97432" fill="#EF3C60"/>
<ellipse cx="27.2966" cy="8.9742" rx="3.97432" ry="3.97432" fill="#EF3C60"/>
</svg>
