<svg width="64" height="64" viewBox="0 0 64 64" fill="none" xmlns="http://www.w3.org/2000/svg">
<path d="M53.6 44.3865C53.6 48.9229 53.6 51.1911 52.7171 52.9238C51.9406 54.4479 50.7014 55.687 49.1773 56.4636C47.4446 57.3465 45.1764 57.3465 40.64 57.3465H23.36C18.8236 57.3465 16.5554 57.3465 14.8227 56.4636C13.2986 55.687 12.0594 54.4479 11.2828 52.9238C10.4 51.1911 10.4 48.9229 10.4 44.3865V22.2465H40.64H53.6V32.3846M10.4 22.2373C9.95718 22.2258 9.63562 22.2002 9.34651 22.1427C7.20438 21.7166 5.52986 20.0421 5.10376 17.8999C5 17.3783 5 16.751 5 15.4965C5 14.2419 5 13.6146 5.10376 13.093C5.52986 10.9508 7.20438 9.27632 9.34651 8.85022C9.86815 8.74646 10.4954 8.74646 11.75 8.74646H21.875M53.6 22.2373C54.0428 22.2258 54.3644 22.2002 54.6535 22.1427C56.7956 21.7166 58.4701 20.0421 58.8962 17.8999C59 17.3783 59 16.751 59 15.4965C59 14.2419 59 13.6146 58.8962 13.093C58.4701 10.9508 56.7956 9.27632 54.6535 8.85022C54.1319 8.74646 53.5046 8.74646 52.25 8.74646L34.3481 8.74646M26.6 35.7465H37.4" stroke="#EF3C60" stroke-width="3" stroke-linecap="round" stroke-linejoin="round"/>
<ellipse cx="53.2899" cy="43.1642" rx="4.04278" ry="4.04278" fill="#EF3C60"/>
<ellipse cx="22.6649" cy="8.74652" rx="4.04278" ry="4.04278" fill="#EF3C60"/>
</svg>
