<svg width="64" height="64" viewBox="0 0 64 64" fill="none" xmlns="http://www.w3.org/2000/svg">
<path d="M19.9357 8.78721C24.4049 8.73471 28.8137 10.8495 31.9815 14.553C37.3798 8.24193 46.2654 6.60508 53.1453 12.3233C58.8586 17.0718 60.4039 24.5821 57.722 30.9067C57.1743 32.1982 56.4504 33.4403 55.5497 34.5993C54.7577 35.6184 53.6779 36.8402 52.4138 38.1816C51.4992 39.1521 50.5578 40.1376 49.4894 41.2018M9.5121 13.5609C3.95312 19.4102 3.46494 28.2318 8.41333 34.5993C12.4252 39.7618 23.8225 50.1258 29.1596 54.8884C30.1407 55.764 30.6313 56.2017 31.2057 56.374C31.7044 56.5236 32.2586 56.5236 32.7573 56.374C33.3317 56.2017 33.8223 55.764 34.8034 54.8884C36.9632 52.9611 40.1155 50.1165 43.3691 47.0705" stroke="#EF3C60" stroke-width="3" stroke-linecap="round" stroke-linejoin="round"/>
<ellipse cx="41.7525" cy="48.6864" rx="3.816" ry="3.816" fill="#EF3C60"/>
<ellipse cx="20.0621" cy="8.78621" rx="3.816" ry="3.816" fill="#EF3C60"/>
<path d="M31.9995 24.6261V37.0705M26.0635 30.8483H37.9355" stroke="#EF3C60" stroke-width="3.15691" stroke-linecap="round" stroke-linejoin="round"/>
</svg>
