<svg width="64" height="64" viewBox="0 0 64 64" fill="none" xmlns="http://www.w3.org/2000/svg">
<ellipse cx="30.8048" cy="8.9546" rx="3.95417" ry="3.95423" fill="#EF3C60"/>
<path d="M30.5673 8.95459H21.395C16.5792 8.95459 14.1712 8.95459 12.3318 9.89182C10.7138 10.7162 9.39836 12.0317 8.57395 13.6497C7.63672 15.4891 7.63672 17.897 7.63672 22.7129V37.6178C7.63672 40.2834 7.63672 41.6162 7.92972 42.7097C8.72484 45.6771 11.0427 47.9949 14.0101 48.79C15.1036 49.083 16.4364 49.083 19.102 49.083V55.7773C19.102 57.3046 19.102 58.0683 19.4151 58.4605C19.6874 58.8016 20.1002 59.0001 20.5367 58.9996C21.0386 58.9991 21.6349 58.522 22.8275 57.5679L29.665 52.0979C31.0618 50.9805 31.7601 50.4218 32.5378 50.0245C33.2278 49.672 33.9622 49.4144 34.7212 49.2586C35.5766 49.083 36.471 49.083 38.2597 49.083H42.6058C47.4217 49.083 49.8296 49.083 51.669 48.1458C53.287 47.3214 54.6025 46.0059 55.4269 44.3879C56.3641 42.5485 56.3641 40.1406 56.3641 35.3247" stroke="#EF3C60" stroke-width="3" stroke-linecap="round" stroke-linejoin="round"/>
<path d="M42.7051 8.95544H45.1643C49.0846 8.95544 51.0448 8.95544 52.5422 9.7184C53.8593 10.3895 54.9302 11.4604 55.6013 12.7775C56.3643 14.2749 56.3643 16.2351 56.3643 20.1554V35.3461" stroke="#EF3C60" stroke-width="3" stroke-linecap="round" stroke-linejoin="round"/>
</svg>
