<svg width="64" height="64" viewBox="0 0 64 64" fill="none" xmlns="http://www.w3.org/2000/svg">
<path d="M11.75 59V45.5M11.75 18.5V5M5 11.75H18.5M5 52.25H18.5M13.2322 31.0876L22.5739 27.3177C24.5536 26.5563 25.5435 26.1756 26.3761 25.5835C27.1141 25.0588 27.7588 24.4141 28.2835 23.6761C28.8756 22.8435 29.2563 21.8536 30.0177 19.8739L34.7 7.7L37.0411 13.787L38.5586 17.5347M41.1165 23.6761C41.6412 24.4141 42.2859 25.0588 43.0239 25.5835C43.8565 26.1756 44.8463 26.5563 46.8261 27.3177L59 32L46.8261 36.6823C44.8464 37.4437 43.8565 37.8244 43.0239 38.4165C42.2859 38.9412 41.6412 39.5859 41.1165 40.3239C40.5244 41.1565 40.1437 42.1464 39.3823 44.1261L34.7 56.3L30.0177 44.1261C29.2563 42.1464 28.8756 41.1565 28.2835 40.3239C27.7588 39.5859 27.1141 38.9412 26.3761 38.4165C25.5435 37.8244 24.5537 37.4437 22.5739 36.6823L19.9429 35.7418" stroke="#EF3C60" stroke-width="3" stroke-linecap="round" stroke-linejoin="round"/>
<circle cx="12.0723" cy="31.2799" r="4" transform="rotate(90 12.0723 31.2799)" fill="#EF3C60"/>
<circle cx="42.9736" cy="24.7856" r="4" transform="rotate(90 42.9736 24.7856)" fill="#EF3C60"/>
</svg>
