<svg width="64" height="64" viewBox="0 0 64 64" fill="none" xmlns="http://www.w3.org/2000/svg">
<path d="M23.2354 24.2013C25.6027 22.2386 28.7534 22.8151 30.6427 24.9585C32.5321 22.8151 35.6421 22.2592 38.0501 24.2013C40.458 26.1433 40.7506 29.4454 38.8916 31.7667C37.4874 33.52 33.4984 37.0399 31.6304 38.6574C31.287 38.9547 31.1153 39.1034 30.9143 39.1619C30.7397 39.2127 30.5458 39.2127 30.3712 39.1619C30.1702 39.1034 29.9985 38.9547 29.6551 38.6574C27.7871 37.0399 23.7981 33.52 22.3939 31.7667C20.5349 29.4454 20.8681 26.1639 23.2354 24.2013Z" stroke="#EF3C60" stroke-width="3" stroke-linecap="round" stroke-linejoin="round"/>
<path d="M59 59L48.5003 48.5M30.5 56C44.5833 56 56 44.5833 56 30.5C56 22.3476 52.1743 15.0887 46.2202 10.4206M15.8043 51.3421C9.26815 46.7251 5 39.111 5 30.5C5 16.4167 16.4167 5 30.5 5C32.9006 5 35.2238 5.33173 37.4261 5.95185" stroke="#EF3C60" stroke-width="3" stroke-linecap="round" stroke-linejoin="round"/>
<ellipse cx="47.1266" cy="11.0687" rx="4.32" ry="4.32" fill="#EF3C60"/>
<ellipse cx="16.8796" cy="51.9898" rx="4.32" ry="4.32" fill="#EF3C60"/>
</svg>
