<svg width="64" height="64" viewBox="0 0 64 64" fill="none" xmlns="http://www.w3.org/2000/svg">
<path d="M20.75 24.125H32M20.75 32H38.75M20.75 45.5V50.7549C20.75 51.9538 20.75 52.5532 20.9958 52.8611C21.2095 53.1289 21.5336 53.2847 21.8762 53.2843C22.2702 53.2839 22.7383 52.9094 23.6745 52.1604L29.0417 47.8666C30.1382 46.9895 30.6864 46.5509 31.2968 46.239C31.8384 45.9623 32.415 45.7601 33.0107 45.6378C33.6823 45.5 34.3843 45.5 35.7884 45.5H41.45C45.2304 45.5 47.1205 45.5 48.5644 44.7643C49.8345 44.1171 50.8671 43.0845 51.5143 41.8144C52.25 40.3705 52.25 38.4804 52.25 34.7V22.55C52.25 18.7696 52.25 16.8795 51.5143 15.4356C50.8671 14.1655 49.8345 13.1329 48.5644 12.4857C47.1205 11.75 45.2304 11.75 41.45 11.75H22.55C18.7696 11.75 16.8795 11.75 15.4356 12.4857C14.1655 13.1329 13.1329 14.1655 12.4857 15.4356C11.75 16.8795 11.75 18.7696 11.75 22.55V36.5C11.75 38.5924 11.75 39.6387 11.98 40.497C12.6042 42.8264 14.4236 44.6458 16.753 45.27C17.6113 45.5 18.6576 45.5 20.75 45.5Z" stroke="#EF3C60" stroke-width="4" stroke-linecap="round" stroke-linejoin="round"/>
</svg>
