<svg width="64" height="64" viewBox="0 0 64 64" fill="none" xmlns="http://www.w3.org/2000/svg">
<path d="M32 8C45.2549 8 55.9999 18.7452 56 32C56 45.2549 45.2549 56 32 56C18.7451 56 8 45.2549 8 32C8.00006 18.7452 18.7451 8 32 8ZM32 16C30.8955 16 30 16.8955 30 18V30H18C16.8955 30 16.0001 30.8955 16 32C16 33.1046 16.8954 34 18 34H30V46C30 47.1045 30.8955 48 32 48C33.1045 48 34 47.1045 34 46V34H46C47.1045 34 48 33.1045 48 32C47.9999 30.8955 47.1045 30 46 30H34V18C34 16.8955 33.1045 16 32 16Z" fill="#EF3C60"/>
</svg>
