<svg width="64" height="64" viewBox="0 0 64 64" fill="none" xmlns="http://www.w3.org/2000/svg">
<path d="M42.9209 8C47.2898 8 49.4749 8.00035 51.1436 8.85059C52.6112 9.59849 53.8039 10.7921 54.5518 12.2598C55.4019 13.9284 55.4023 16.1127 55.4023 20.4814V34.5225C55.4023 38.8913 55.402 41.0764 54.5518 42.7451C53.8039 44.2125 52.611 45.4055 51.1436 46.1533C49.4749 47.0036 47.2898 47.0039 42.9209 47.0039H36.3779C34.7554 47.0039 33.944 47.0038 33.168 47.1631C32.4795 47.3044 31.8134 47.5386 31.1875 47.8584C30.482 48.2188 29.8481 48.7256 28.5811 49.7393L22.3789 54.7012C21.297 55.5667 20.7551 55.9995 20.2998 56C19.904 56.0003 19.5301 55.8201 19.2832 55.5107C18.9992 55.1549 18.999 54.4626 18.999 53.0771V47.0039C16.5812 47.0039 15.3718 47.004 14.3799 46.7383C11.688 46.017 9.58469 43.9145 8.86328 41.2227C8.59748 40.2307 8.59766 39.0207 8.59766 36.6025V20.4814C8.59766 16.1128 8.59812 13.9284 9.44824 12.2598C10.1961 10.792 11.3896 9.59848 12.8574 8.85059C14.5261 8.00046 16.7104 8 21.0791 8H42.9209ZM19.5498 27.1836C18.4453 27.1836 17.55 28.0792 17.5498 29.1836C17.5499 30.2881 18.4453 31.1836 19.5498 31.1836H41.8721C42.9763 31.1833 43.8719 30.2879 43.8721 29.1836C43.8719 28.0793 42.9763 27.1839 41.8721 27.1836H19.5498ZM19.5498 17.4775C18.4453 17.4775 17.55 18.3731 17.5498 19.4775C17.5498 20.5821 18.4452 21.4775 19.5498 21.4775H33.501C34.6053 21.4773 35.501 20.582 35.501 19.4775C35.5008 18.3733 34.6052 17.4778 33.501 17.4775H19.5498Z" fill="#EF3C60"/>
</svg>
