<svg width="64" height="64" viewBox="0 0 64 64" fill="none" xmlns="http://www.w3.org/2000/svg">
<path d="M11.75 28.7714C11.75 27.4791 11.75 26.833 11.9166 26.2379C12.0641 25.7108 12.3066 25.2151 12.6321 24.775C12.9995 24.2782 13.5095 23.8815 14.5296 23.0881L29.7898 11.2191C30.5803 10.6042 30.9755 10.2968 31.412 10.1787C31.7971 10.0744 32.2029 10.0744 32.588 10.1787C33.0245 10.2968 33.4197 10.6042 34.2102 11.2191L49.4704 23.0881C50.4905 23.8815 51.0005 24.2782 51.3679 24.775C51.6934 25.2151 51.9359 25.7108 52.0834 26.2379C52.25 26.833 52.25 27.4791 52.25 28.7714V45.05C52.25 47.5703 52.25 48.8304 51.7595 49.793C51.3281 50.6397 50.6397 51.3281 49.793 51.7596C48.8304 52.25 47.5702 52.25 45.05 52.25H18.95C16.4298 52.25 15.1696 52.25 14.207 51.7596C13.3603 51.3281 12.6719 50.6397 12.2405 49.793C11.75 48.8304 11.75 47.5703 11.75 45.05V28.7714Z" stroke="#EF3C60" stroke-width="4" stroke-linecap="round" stroke-linejoin="round"/>
</svg>
